<svg xmlns="http://www.w3.org/2000/svg" width="1071" height="2005" viewBox="0 0 1071 2005">
<rect width="1071" height="2005" fill="#ffffff"/>
<rect x="141.8" y="231.0" width="310.7" height="58.7" fill="#E6EEFA" stroke="none" stroke-width="1"/>
<rect x="237.1" y="289.7" width="215.4" height="58.8" fill="#E6EEFA" stroke="none" stroke-width="1"/>
<rect x="141.8" y="348.5" width="310.7" height="20.9" fill="#E6EEFA" stroke="none" stroke-width="1"/>
<rect x="141.8" y="369.4" width="280.6" height="56.7" fill="#E6EEFA" stroke="none" stroke-width="1"/>
<rect x="141.8" y="426.1" width="328.2" height="480.6" fill="#E6EEFA" stroke="none" stroke-width="1"/>
<rect x="405.6" y="906.7" width="64.4" height="73.3" fill="#E6EEFA" stroke="none" stroke-width="1"/>
<rect x="183.9" y="919.8" width="194.8" height="60.3" fill="#FBEEE0" stroke="none" stroke-width="1"/>
<rect x="141.8" y="980.1" width="236.9" height="160.3" fill="#FBEEE0" stroke="none" stroke-width="1"/>
<rect x="141.8" y="1153.5" width="195.3" height="216.8" fill="#E3F4EA" stroke="none" stroke-width="1"/>
<rect x="150.2" y="1370.4" width="186.9" height="56.0" fill="#E3F4EA" stroke="none" stroke-width="1"/>
<rect x="391.8" y="980.0" width="468.5" height="173.6" fill="#EFEAF8" stroke="none" stroke-width="1"/>
<rect x="350.2" y="1153.5" width="119.8" height="75.8" fill="#EFEAF8" stroke="none" stroke-width="1"/>
<rect x="540.9" y="1153.5" width="319.4" height="75.8" fill="#EFEAF8" stroke="none" stroke-width="1"/>
<rect x="350.2" y="1229.3" width="119.8" height="197.0" fill="#EFEAF8" stroke="none" stroke-width="1"/>
<rect x="470.0" y="1166.7" width="57.8" height="75.8" fill="#FBE8E8" stroke="none" stroke-width="1"/>
<rect x="470.0" y="1242.5" width="280.2" height="323.4" fill="#FBE8E8" stroke="none" stroke-width="1"/>
<rect x="110.3" y="199.5" width="373.7" height="31.5" fill="#3A3A3A" stroke="none" stroke-width="1"/>
<rect x="452.4" y="199.5" width="31.5" height="169.9" fill="#3A3A3A" stroke="none" stroke-width="1"/>
<rect x="422.3" y="369.4" width="61.6" height="31.5" fill="#3A3A3A" stroke="none" stroke-width="1"/>
<rect x="422.3" y="369.4" width="31.5" height="56.7" fill="#3A3A3A" stroke="none" stroke-width="1"/>
<rect x="422.3" y="394.6" width="47.7" height="31.5" fill="#3A3A3A" stroke="none" stroke-width="1"/>
<rect x="470.0" y="394.6" width="31.5" height="585.4" fill="#3A3A3A" stroke="none" stroke-width="1"/>
<rect x="110.3" y="199.5" width="31.5" height="90.2" fill="#3A3A3A" stroke="none" stroke-width="1"/>
<rect x="110.3" y="289.7" width="126.8" height="58.8" fill="#3A3A3A" stroke="none" stroke-width="1"/>
<rect x="110.3" y="348.5" width="31.5" height="571.3" fill="#3A3A3A" stroke="none" stroke-width="1"/>
<rect x="110.3" y="906.7" width="295.4" height="13.1" fill="#3A3A3A" stroke="none" stroke-width="1"/>
<rect x="391.8" y="906.7" width="13.9" height="73.3" fill="#3A3A3A" stroke="none" stroke-width="1"/>
<rect x="141.8" y="919.8" width="42.1" height="60.3" fill="#3A3A3A" stroke="none" stroke-width="1"/>
<rect x="110.3" y="919.8" width="31.5" height="233.7" fill="#3A3A3A" stroke="none" stroke-width="1"/>
<rect x="110.3" y="1140.4" width="281.5" height="13.1" fill="#3A3A3A" stroke="none" stroke-width="1"/>
<rect x="378.6" y="906.7" width="13.1" height="246.9" fill="#3A3A3A" stroke="none" stroke-width="1"/>
<rect x="110.3" y="1153.5" width="31.5" height="216.8" fill="#3A3A3A" stroke="none" stroke-width="1"/>
<rect x="110.3" y="1370.4" width="39.9" height="13.1" fill="#3A3A3A" stroke="none" stroke-width="1"/>
<rect x="118.7" y="1383.5" width="31.5" height="42.8" fill="#3A3A3A" stroke="none" stroke-width="1"/>
<rect x="118.7" y="1426.3" width="231.5" height="31.5" fill="#3A3A3A" stroke="none" stroke-width="1"/>
<rect x="337.1" y="1140.4" width="13.1" height="317.4" fill="#3A3A3A" stroke="none" stroke-width="1"/>
<rect x="470.0" y="948.5" width="421.8" height="31.5" fill="#3A3A3A" stroke="none" stroke-width="1"/>
<rect x="860.3" y="948.5" width="31.5" height="312.4" fill="#3A3A3A" stroke="none" stroke-width="1"/>
<rect x="750.2" y="1229.3" width="141.5" height="31.5" fill="#3A3A3A" stroke="none" stroke-width="1"/>
<rect x="337.1" y="1426.3" width="164.4" height="31.5" fill="#3A3A3A" stroke="none" stroke-width="1"/>
<rect x="456.9" y="1153.5" width="70.9" height="13.1" fill="#3A3A3A" stroke="none" stroke-width="1"/>
<rect x="527.7" y="1153.5" width="13.1" height="88.9" fill="#3A3A3A" stroke="none" stroke-width="1"/>
<rect x="540.9" y="1229.3" width="209.4" height="13.1" fill="#3A3A3A" stroke="none" stroke-width="1"/>
<rect x="456.9" y="1153.5" width="13.1" height="272.8" fill="#3A3A3A" stroke="none" stroke-width="1"/>
<rect x="438.5" y="1426.3" width="31.5" height="171.0" fill="#3A3A3A" stroke="none" stroke-width="1"/>
<rect x="750.2" y="1229.3" width="31.5" height="368.0" fill="#3A3A3A" stroke="none" stroke-width="1"/>
<rect x="438.5" y="1565.9" width="343.2" height="31.5" fill="#3A3A3A" stroke="none" stroke-width="1"/>
<g transform="rotate(180 437.80 947.72) translate(405.62 915.47)"><path d="M 0 5 A 64.365 64.365 0 0 0 64.365 69.365 L 64.365 5" fill="none" stroke="#8C8C8C" stroke-width="1.3"/></g>
<rect x="378.6" y="990.8" width="13.1" height="64.4" fill="#FFFFFF" stroke="none" stroke-width="1"/>
<g transform="rotate(90 359.51 1022.96) translate(327.32 990.71)"><path d="M 0 5 A 64.365 64.365 0 0 0 64.365 69.365 L 64.365 5" fill="none" stroke="#8C8C8C" stroke-width="1.3"/></g>
<rect x="456.9" y="1253.8" width="13.1" height="73.5" fill="#FFFFFF" stroke="none" stroke-width="1"/>
<g transform="rotate(270 493.67 1290.56) translate(456.92 1253.74)"><path d="M 0 5 A 73.5 73.5 0 0 0 73.5 78.5 L 73.5 5" fill="none" stroke="#8C8C8C" stroke-width="1.3"/></g>
<rect x="337.1" y="1174.5" width="13.1" height="73.5" fill="#FFFFFF" stroke="none" stroke-width="1"/>
<g transform="rotate(90 313.36 1211.28) translate(276.61 1174.46)"><path d="M 0 5 A 73.5 73.5 0 0 0 73.5 78.5 L 73.5 5" fill="none" stroke="#8C8C8C" stroke-width="1.3"/></g>
<rect x="860.3" y="1060.5" width="31.5" height="94.5" fill="#FFFFFF" stroke="none" stroke-width="1"/>
<g transform="rotate(90 812.95 1107.75) translate(765.70 1060.43)"><path d="M 94.50000000000001 5 A 94.50000000000001 94.50000000000001 0 0 1 0 99.50000000000001 L 0 5" fill="none" stroke="#8C8C8C" stroke-width="1.3"/></g>
<text x="308.3" y="587.7" text-anchor="middle" font-family="Helvetica,Arial" font-size="17.8" font-weight="bold" fill="#2B2B2B">КОМНАТА 1</text>
<text x="308.3" y="605.6" text-anchor="middle" font-family="Helvetica,Arial" font-size="13.6" font-weight="bold" fill="#777">19.57 м²</text>
<text x="265.2" y="1033.3" text-anchor="middle" font-family="Helvetica,Arial" font-size="17.8" font-weight="bold" fill="#2B2B2B">ПОМЕЩЕНИЕ 2</text>
<text x="265.2" y="1051.1" text-anchor="middle" font-family="Helvetica,Arial" font-size="13.6" font-weight="bold" fill="#777">4.51 м²</text>
<text x="240.2" y="1288.0" text-anchor="middle" font-family="Helvetica,Arial" font-size="17.8" font-weight="bold" fill="#2B2B2B">ПОМЕЩЕНИЕ 3</text>
<text x="240.2" y="1305.9" text-anchor="middle" font-family="Helvetica,Arial" font-size="13.6" font-weight="bold" fill="#777">4.79 м²</text>
<text x="588.0" y="1129.3" text-anchor="middle" font-family="Helvetica,Arial" font-size="17.8" font-weight="bold" fill="#2B2B2B">КОРИДОР /</text>
<text x="588.0" y="1151.6" text-anchor="middle" font-family="Helvetica,Arial" font-size="17.8" font-weight="bold" fill="#2B2B2B">ПРИХОЖАЯ</text>
<text x="588.0" y="1169.5" text-anchor="middle" font-family="Helvetica,Arial" font-size="13.6" font-weight="bold" fill="#777">12.54 м²</text>
<text x="605.0" y="1394.0" text-anchor="middle" font-family="Helvetica,Arial" font-size="17.8" font-weight="bold" fill="#2B2B2B">КОМНАТА 4</text>
<text x="605.0" y="1411.9" text-anchor="middle" font-family="Helvetica,Arial" font-size="13.6" font-weight="bold" fill="#777">8.62 м²</text>
<rect x="141.8" y="186.3" width="310.7" height="1.3" fill="#1F5FA8" stroke="none" stroke-width="1"/>
<text x="297.1" y="185.7" text-anchor="middle" font-family="Helvetica,Arial" font-size="12.1" font-weight="normal" fill="#1F5FA8">2.959</text>
<rect x="141.8" y="183.0" width="1.3" height="7.9" fill="#1F5FA8" stroke="none" stroke-width="1"/>
<rect x="451.2" y="183.0" width="1.3" height="7.9" fill="#1F5FA8" stroke="none" stroke-width="1"/>
<rect x="500.2" y="231.0" width="1.3" height="138.4" fill="#1F5FA8" stroke="none" stroke-width="1"/>
<text x="495.4" y="305.3" text-anchor="end" transform="rotate(-90 495.4 305.3)" font-family="Helvetica,Arial" font-size="12.1" font-weight="normal" fill="#1F5FA8">1.318</text>
<rect x="496.9" y="231.0" width="7.9" height="1.3" fill="#1F5FA8" stroke="none" stroke-width="1"/>
<rect x="496.9" y="368.1" width="7.9" height="1.3" fill="#1F5FA8" stroke="none" stroke-width="1"/>
<rect x="422.3" y="356.4" width="30.1" height="1.3" fill="#1F5FA8" stroke="none" stroke-width="1"/>
<text x="437.4" y="355.8" text-anchor="middle" font-family="Helvetica,Arial" font-size="12.1" font-weight="normal" fill="#1F5FA8">0.287</text>
<rect x="422.3" y="353.1" width="1.3" height="7.9" fill="#1F5FA8" stroke="none" stroke-width="1"/>
<rect x="451.2" y="353.1" width="1.3" height="7.9" fill="#1F5FA8" stroke="none" stroke-width="1"/>
<rect x="517.0" y="369.4" width="1.3" height="56.7" fill="#1F5FA8" stroke="none" stroke-width="1"/>
<text x="512.2" y="402.9" text-anchor="end" transform="rotate(-90 512.2 402.9)" font-family="Helvetica,Arial" font-size="12.1" font-weight="normal" fill="#1F5FA8">0.54</text>
<rect x="513.7" y="369.4" width="7.9" height="1.3" fill="#1F5FA8" stroke="none" stroke-width="1"/>
<rect x="513.7" y="424.8" width="7.9" height="1.3" fill="#1F5FA8" stroke="none" stroke-width="1"/>
<rect x="422.3" y="446.7" width="47.7" height="1.3" fill="#1F5FA8" stroke="none" stroke-width="1"/>
<text x="446.1" y="446.1" text-anchor="middle" font-family="Helvetica,Arial" font-size="12.1" font-weight="normal" fill="#1F5FA8">0.454</text>
<rect x="422.3" y="443.4" width="1.3" height="7.9" fill="#1F5FA8" stroke="none" stroke-width="1"/>
<rect x="468.7" y="443.4" width="1.3" height="7.9" fill="#1F5FA8" stroke="none" stroke-width="1"/>
<rect x="517.0" y="426.1" width="1.3" height="553.9" fill="#1F5FA8" stroke="none" stroke-width="1"/>
<text x="512.2" y="708.2" text-anchor="end" transform="rotate(-90 512.2 708.2)" font-family="Helvetica,Arial" font-size="12.1" font-weight="normal" fill="#1F5FA8">5.275</text>
<rect x="513.7" y="426.1" width="7.9" height="1.3" fill="#1F5FA8" stroke="none" stroke-width="1"/>
<rect x="513.7" y="978.7" width="7.9" height="1.3" fill="#1F5FA8" stroke="none" stroke-width="1"/>
<rect x="92.8" y="231.0" width="1.3" height="58.7" fill="#1F5FA8" stroke="none" stroke-width="1"/>
<text x="88.0" y="265.5" text-anchor="end" transform="rotate(-90 88.0 265.5)" font-family="Helvetica,Arial" font-size="12.1" font-weight="normal" fill="#1F5FA8">0.559</text>
<rect x="89.5" y="231.0" width="7.9" height="1.3" fill="#1F5FA8" stroke="none" stroke-width="1"/>
<rect x="89.5" y="288.4" width="7.9" height="1.3" fill="#1F5FA8" stroke="none" stroke-width="1"/>
<rect x="141.8" y="276.6" width="95.3" height="1.3" fill="#1F5FA8" stroke="none" stroke-width="1"/>
<text x="189.4" y="276.0" text-anchor="middle" font-family="Helvetica,Arial" font-size="12.1" font-weight="normal" fill="#1F5FA8">0.908</text>
<rect x="141.8" y="273.3" width="1.3" height="7.9" fill="#1F5FA8" stroke="none" stroke-width="1"/>
<rect x="235.8" y="273.3" width="1.3" height="7.9" fill="#1F5FA8" stroke="none" stroke-width="1"/>
<rect x="252.4" y="289.7" width="1.3" height="58.8" fill="#1F5FA8" stroke="none" stroke-width="1"/>
<text x="247.6" y="324.2" text-anchor="end" transform="rotate(-90 247.6 324.2)" font-family="Helvetica,Arial" font-size="12.1" font-weight="normal" fill="#1F5FA8">0.56</text>
<rect x="249.1" y="289.7" width="7.9" height="1.3" fill="#1F5FA8" stroke="none" stroke-width="1"/>
<rect x="249.1" y="347.2" width="7.9" height="1.3" fill="#1F5FA8" stroke="none" stroke-width="1"/>
<rect x="92.8" y="348.5" width="1.3" height="558.2" fill="#1F5FA8" stroke="none" stroke-width="1"/>
<text x="88.0" y="632.7" text-anchor="end" transform="rotate(-90 88.0 632.7)" font-family="Helvetica,Arial" font-size="12.1" font-weight="normal" fill="#1F5FA8">5.316</text>
<rect x="89.5" y="348.5" width="7.9" height="1.3" fill="#1F5FA8" stroke="none" stroke-width="1"/>
<rect x="89.5" y="905.4" width="7.9" height="1.3" fill="#1F5FA8" stroke="none" stroke-width="1"/>
<rect x="141.8" y="889.8" width="263.9" height="1.3" fill="#1F5FA8" stroke="none" stroke-width="1"/>
<text x="273.7" y="889.2" text-anchor="middle" font-family="Helvetica,Arial" font-size="12.1" font-weight="normal" fill="#1F5FA8">2.513</text>
<rect x="141.8" y="886.5" width="1.3" height="7.9" fill="#1F5FA8" stroke="none" stroke-width="1"/>
<rect x="404.4" y="886.5" width="1.3" height="7.9" fill="#1F5FA8" stroke="none" stroke-width="1"/>
<rect x="428.8" y="906.7" width="1.3" height="73.3" fill="#1F5FA8" stroke="none" stroke-width="1"/>
<text x="424.0" y="948.4" text-anchor="end" transform="rotate(-90 424.0 948.4)" font-family="Helvetica,Arial" font-size="12.1" font-weight="normal" fill="#1F5FA8">0.698</text>
<rect x="425.5" y="906.7" width="7.9" height="1.3" fill="#1F5FA8" stroke="none" stroke-width="1"/>
<rect x="425.5" y="978.7" width="7.9" height="1.3" fill="#1F5FA8" stroke="none" stroke-width="1"/>
<text x="434.1" y="947.6" text-anchor="start" transform="rotate(-90 434.1 947.6)" font-family="Helvetica,Arial" font-size="10.0" font-weight="normal" fill="#9AA7B8">0,45 + 0,242</text>
<rect x="405.6" y="996.9" width="64.4" height="1.3" fill="#1F5FA8" stroke="none" stroke-width="1"/>
<text x="437.8" y="996.3" text-anchor="middle" font-family="Helvetica,Arial" font-size="12.1" font-weight="normal" fill="#1F5FA8">0.613</text>
<rect x="405.6" y="993.6" width="1.3" height="7.9" fill="#1F5FA8" stroke="none" stroke-width="1"/>
<rect x="468.7" y="993.6" width="1.3" height="7.9" fill="#1F5FA8" stroke="none" stroke-width="1"/>
<rect x="183.9" y="938.1" width="194.8" height="1.3" fill="#1F5FA8" stroke="none" stroke-width="1"/>
<text x="281.2" y="937.5" text-anchor="middle" font-family="Helvetica,Arial" font-size="12.1" font-weight="normal" fill="#1F5FA8">1.855</text>
<rect x="183.9" y="934.8" width="1.3" height="7.9" fill="#1F5FA8" stroke="none" stroke-width="1"/>
<rect x="377.4" y="934.8" width="1.3" height="7.9" fill="#1F5FA8" stroke="none" stroke-width="1"/>
<rect x="197.8" y="919.8" width="1.3" height="60.3" fill="#1F5FA8" stroke="none" stroke-width="1"/>
<text x="193.0" y="955.1" text-anchor="end" transform="rotate(-90 193.0 955.1)" font-family="Helvetica,Arial" font-size="12.1" font-weight="normal" fill="#1F5FA8">0.574</text>
<rect x="194.5" y="919.8" width="7.9" height="1.3" fill="#1F5FA8" stroke="none" stroke-width="1"/>
<rect x="194.5" y="978.8" width="7.9" height="1.3" fill="#1F5FA8" stroke="none" stroke-width="1"/>
<rect x="141.8" y="992.7" width="42.1" height="1.3" fill="#1F5FA8" stroke="none" stroke-width="1"/>
<text x="162.8" y="992.1" text-anchor="middle" font-family="Helvetica,Arial" font-size="12.1" font-weight="normal" fill="#1F5FA8">0.401</text>
<rect x="141.8" y="989.4" width="1.3" height="7.9" fill="#1F5FA8" stroke="none" stroke-width="1"/>
<rect x="182.6" y="989.4" width="1.3" height="7.9" fill="#1F5FA8" stroke="none" stroke-width="1"/>
<text x="162.8" y="1006.6" text-anchor="middle" font-family="Helvetica,Arial" font-size="10.0" font-weight="normal" fill="#9AA7B8">0,4</text>
<rect x="92.8" y="980.1" width="1.3" height="160.3" fill="#1F5FA8" stroke="none" stroke-width="1"/>
<text x="88.0" y="1065.4" text-anchor="end" transform="rotate(-90 88.0 1065.4)" font-family="Helvetica,Arial" font-size="12.1" font-weight="normal" fill="#1F5FA8">1.527</text>
<rect x="89.5" y="980.1" width="7.9" height="1.3" fill="#1F5FA8" stroke="none" stroke-width="1"/>
<rect x="89.5" y="1139.1" width="7.9" height="1.3" fill="#1F5FA8" stroke="none" stroke-width="1"/>
<rect x="141.8" y="1127.1" width="236.9" height="1.3" fill="#1F5FA8" stroke="none" stroke-width="1"/>
<text x="260.2" y="1126.5" text-anchor="middle" font-family="Helvetica,Arial" font-size="12.1" font-weight="normal" fill="#1F5FA8">2.256</text>
<rect x="141.8" y="1123.8" width="1.3" height="7.9" fill="#1F5FA8" stroke="none" stroke-width="1"/>
<rect x="377.4" y="1123.8" width="1.3" height="7.9" fill="#1F5FA8" stroke="none" stroke-width="1"/>
<rect x="369.0" y="919.8" width="1.3" height="71.0" fill="#1F5FA8" stroke="none" stroke-width="1"/>
<text x="364.1" y="960.4" text-anchor="end" transform="rotate(-90 364.1 960.4)" font-family="Helvetica,Arial" font-size="12.1" font-weight="normal" fill="#1F5FA8">0.676</text>
<rect x="365.7" y="919.8" width="7.9" height="1.3" fill="#1F5FA8" stroke="none" stroke-width="1"/>
<rect x="365.7" y="989.5" width="7.9" height="1.3" fill="#1F5FA8" stroke="none" stroke-width="1"/>
<rect x="369.0" y="990.8" width="1.3" height="64.4" fill="#1F5FA8" stroke="none" stroke-width="1"/>
<text x="364.1" y="1028.1" text-anchor="end" transform="rotate(-90 364.1 1028.1)" font-family="Helvetica,Arial" font-size="12.1" font-weight="normal" fill="#1F5FA8">0.613</text>
<rect x="365.7" y="990.8" width="7.9" height="1.3" fill="#1F5FA8" stroke="none" stroke-width="1"/>
<rect x="365.7" y="1053.9" width="7.9" height="1.3" fill="#1F5FA8" stroke="none" stroke-width="1"/>
<rect x="369.0" y="1055.1" width="1.3" height="85.3" fill="#1F5FA8" stroke="none" stroke-width="1"/>
<text x="364.1" y="1102.9" text-anchor="end" transform="rotate(-90 364.1 1102.9)" font-family="Helvetica,Arial" font-size="12.1" font-weight="normal" fill="#1F5FA8">0.812</text>
<rect x="365.7" y="1055.1" width="7.9" height="1.3" fill="#1F5FA8" stroke="none" stroke-width="1"/>
<rect x="365.7" y="1139.1" width="7.9" height="1.3" fill="#1F5FA8" stroke="none" stroke-width="1"/>
<text x="374.2" y="1102.0" text-anchor="start" transform="rotate(-90 374.2 1102.0)" font-family="Helvetica,Arial" font-size="10.0" font-weight="normal" fill="#9AA7B8">1,051 на эскизе</text>
<rect x="141.8" y="1169.1" width="195.3" height="1.3" fill="#1F5FA8" stroke="none" stroke-width="1"/>
<text x="239.4" y="1168.5" text-anchor="middle" font-family="Helvetica,Arial" font-size="12.1" font-weight="normal" fill="#1F5FA8">1.86</text>
<rect x="141.8" y="1165.8" width="1.3" height="7.9" fill="#1F5FA8" stroke="none" stroke-width="1"/>
<rect x="335.8" y="1165.8" width="1.3" height="7.9" fill="#1F5FA8" stroke="none" stroke-width="1"/>
<rect x="92.8" y="1153.5" width="1.3" height="272.8" fill="#1F5FA8" stroke="none" stroke-width="1"/>
<text x="88.0" y="1295.0" text-anchor="end" transform="rotate(-90 88.0 1295.0)" font-family="Helvetica,Arial" font-size="12.1" font-weight="normal" fill="#1F5FA8">2.598</text>
<rect x="89.5" y="1153.5" width="7.9" height="1.3" fill="#1F5FA8" stroke="none" stroke-width="1"/>
<rect x="89.5" y="1425.1" width="7.9" height="1.3" fill="#1F5FA8" stroke="none" stroke-width="1"/>
<rect x="141.8" y="1361.2" width="8.4" height="1.3" fill="#1F5FA8" stroke="none" stroke-width="1"/>
<text x="145.9" y="1360.6" text-anchor="middle" font-family="Helvetica,Arial" font-size="12.1" font-weight="normal" fill="#1F5FA8">0.08</text>
<rect x="141.8" y="1357.9" width="1.3" height="7.9" fill="#1F5FA8" stroke="none" stroke-width="1"/>
<rect x="148.9" y="1357.9" width="1.3" height="7.9" fill="#1F5FA8" stroke="none" stroke-width="1"/>
<rect x="166.3" y="1370.4" width="1.3" height="56.0" fill="#1F5FA8" stroke="none" stroke-width="1"/>
<text x="161.5" y="1403.5" text-anchor="end" transform="rotate(-90 161.5 1403.5)" font-family="Helvetica,Arial" font-size="12.1" font-weight="normal" fill="#1F5FA8">0.533</text>
<rect x="163.0" y="1370.4" width="7.9" height="1.3" fill="#1F5FA8" stroke="none" stroke-width="1"/>
<rect x="163.0" y="1425.1" width="7.9" height="1.3" fill="#1F5FA8" stroke="none" stroke-width="1"/>
<rect x="150.2" y="1412.7" width="186.9" height="1.3" fill="#1F5FA8" stroke="none" stroke-width="1"/>
<text x="243.6" y="1412.1" text-anchor="middle" font-family="Helvetica,Arial" font-size="12.1" font-weight="normal" fill="#1F5FA8">1.78</text>
<rect x="150.2" y="1409.4" width="1.3" height="7.9" fill="#1F5FA8" stroke="none" stroke-width="1"/>
<rect x="335.8" y="1409.4" width="1.3" height="7.9" fill="#1F5FA8" stroke="none" stroke-width="1"/>
<text x="243.6" y="1426.6" text-anchor="middle" font-family="Helvetica,Arial" font-size="10.0" font-weight="normal" fill="#9AA7B8">1,88 на эскизе</text>
<rect x="405.6" y="999.0" width="268.8" height="1.3" fill="#1F5FA8" stroke="none" stroke-width="1"/>
<text x="540.0" y="998.4" text-anchor="middle" font-family="Helvetica,Arial" font-size="12.1" font-weight="normal" fill="#1F5FA8">2.56</text>
<rect x="405.6" y="995.7" width="1.3" height="7.9" fill="#1F5FA8" stroke="none" stroke-width="1"/>
<rect x="673.2" y="995.7" width="1.3" height="7.9" fill="#1F5FA8" stroke="none" stroke-width="1"/>
<rect x="674.4" y="999.0" width="185.8" height="1.3" fill="#1F5FA8" stroke="none" stroke-width="1"/>
<text x="767.3" y="998.4" text-anchor="middle" font-family="Helvetica,Arial" font-size="12.1" font-weight="normal" fill="#1F5FA8">1.77</text>
<rect x="674.4" y="995.7" width="1.3" height="7.9" fill="#1F5FA8" stroke="none" stroke-width="1"/>
<rect x="859.0" y="995.7" width="1.3" height="7.9" fill="#1F5FA8" stroke="none" stroke-width="1"/>
<rect x="905.5" y="1060.5" width="1.3" height="94.5" fill="#1F5FA8" stroke="none" stroke-width="1"/>
<text x="900.7" y="1112.9" text-anchor="end" transform="rotate(-90 900.7 1112.9)" font-family="Helvetica,Arial" font-size="12.1" font-weight="normal" fill="#1F5FA8">0.9</text>
<rect x="902.2" y="1060.5" width="7.9" height="1.3" fill="#1F5FA8" stroke="none" stroke-width="1"/>
<rect x="902.2" y="1153.7" width="7.9" height="1.3" fill="#1F5FA8" stroke="none" stroke-width="1"/>
<text x="910.8" y="1112.0" text-anchor="start" transform="rotate(-90 910.8 1112.0)" font-family="Helvetica,Arial" font-size="10.0" font-weight="normal" fill="#9AA7B8">вход</text>
<rect x="470.0" y="1181.7" width="57.8" height="1.3" fill="#1F5FA8" stroke="none" stroke-width="1"/>
<text x="498.9" y="1181.1" text-anchor="middle" font-family="Helvetica,Arial" font-size="12.1" font-weight="normal" fill="#1F5FA8">0.55</text>
<rect x="470.0" y="1178.4" width="1.3" height="7.9" fill="#1F5FA8" stroke="none" stroke-width="1"/>
<rect x="526.5" y="1178.4" width="1.3" height="7.9" fill="#1F5FA8" stroke="none" stroke-width="1"/>
<rect x="521.2" y="1166.7" width="1.3" height="75.8" fill="#1F5FA8" stroke="none" stroke-width="1"/>
<text x="516.4" y="1209.7" text-anchor="end" transform="rotate(-90 516.4 1209.7)" font-family="Helvetica,Arial" font-size="12.1" font-weight="normal" fill="#1F5FA8">0.722</text>
<rect x="517.9" y="1166.7" width="7.9" height="1.3" fill="#1F5FA8" stroke="none" stroke-width="1"/>
<rect x="517.9" y="1241.2" width="7.9" height="1.3" fill="#1F5FA8" stroke="none" stroke-width="1"/>
<text x="526.5" y="1208.8" text-anchor="start" transform="rotate(-90 526.5 1208.8)" font-family="Helvetica,Arial" font-size="10.0" font-weight="normal" fill="#9AA7B8">1,3 на эскизе</text>
<rect x="540.9" y="1257.3" width="69.3" height="1.3" fill="#1F5FA8" stroke="none" stroke-width="1"/>
<text x="575.5" y="1256.7" text-anchor="middle" font-family="Helvetica,Arial" font-size="12.1" font-weight="normal" fill="#1F5FA8">0.66</text>
<rect x="540.9" y="1254.0" width="1.3" height="7.9" fill="#1F5FA8" stroke="none" stroke-width="1"/>
<rect x="608.9" y="1254.0" width="1.3" height="7.9" fill="#1F5FA8" stroke="none" stroke-width="1"/>
<rect x="636.3" y="1257.3" width="113.9" height="1.3" fill="#1F5FA8" stroke="none" stroke-width="1"/>
<text x="693.3" y="1256.7" text-anchor="middle" font-family="Helvetica,Arial" font-size="12.1" font-weight="normal" fill="#1F5FA8">1.085</text>
<rect x="636.3" y="1254.0" width="1.3" height="7.9" fill="#1F5FA8" stroke="none" stroke-width="1"/>
<rect x="749.0" y="1254.0" width="1.3" height="7.9" fill="#1F5FA8" stroke="none" stroke-width="1"/>
<rect x="485.5" y="1166.7" width="1.3" height="87.2" fill="#1F5FA8" stroke="none" stroke-width="1"/>
<text x="480.7" y="1215.4" text-anchor="end" transform="rotate(-90 480.7 1215.4)" font-family="Helvetica,Arial" font-size="12.1" font-weight="normal" fill="#1F5FA8">0.83</text>
<rect x="482.2" y="1166.7" width="7.9" height="1.3" fill="#1F5FA8" stroke="none" stroke-width="1"/>
<rect x="482.2" y="1252.5" width="7.9" height="1.3" fill="#1F5FA8" stroke="none" stroke-width="1"/>
<rect x="485.5" y="1253.8" width="1.3" height="73.5" fill="#1F5FA8" stroke="none" stroke-width="1"/>
<text x="480.7" y="1295.7" text-anchor="end" transform="rotate(-90 480.7 1295.7)" font-family="Helvetica,Arial" font-size="12.1" font-weight="normal" fill="#1F5FA8">0.7</text>
<rect x="482.2" y="1253.8" width="7.9" height="1.3" fill="#1F5FA8" stroke="none" stroke-width="1"/>
<rect x="482.2" y="1326.0" width="7.9" height="1.3" fill="#1F5FA8" stroke="none" stroke-width="1"/>
<rect x="485.5" y="1327.3" width="1.3" height="238.6" fill="#1F5FA8" stroke="none" stroke-width="1"/>
<text x="480.7" y="1451.7" text-anchor="end" transform="rotate(-90 480.7 1451.7)" font-family="Helvetica,Arial" font-size="12.1" font-weight="normal" fill="#1F5FA8">2.272</text>
<rect x="482.2" y="1327.3" width="7.9" height="1.3" fill="#1F5FA8" stroke="none" stroke-width="1"/>
<rect x="482.2" y="1564.6" width="7.9" height="1.3" fill="#1F5FA8" stroke="none" stroke-width="1"/>
<rect x="794.2" y="1242.5" width="1.3" height="323.4" fill="#1F5FA8" stroke="none" stroke-width="1"/>
<text x="789.4" y="1409.3" text-anchor="end" transform="rotate(-90 789.4 1409.3)" font-family="Helvetica,Arial" font-size="12.1" font-weight="normal" fill="#1F5FA8">3.08</text>
<rect x="790.9" y="1242.5" width="7.9" height="1.3" fill="#1F5FA8" stroke="none" stroke-width="1"/>
<rect x="790.9" y="1564.6" width="7.9" height="1.3" fill="#1F5FA8" stroke="none" stroke-width="1"/>
<rect x="470.0" y="1548.1" width="45.7" height="1.3" fill="#1F5FA8" stroke="none" stroke-width="1"/>
<text x="492.8" y="1547.5" text-anchor="middle" font-family="Helvetica,Arial" font-size="12.1" font-weight="normal" fill="#1F5FA8">0.435</text>
<rect x="470.0" y="1544.8" width="1.3" height="7.9" fill="#1F5FA8" stroke="none" stroke-width="1"/>
<rect x="514.4" y="1544.8" width="1.3" height="7.9" fill="#1F5FA8" stroke="none" stroke-width="1"/>
<rect x="515.7" y="1548.1" width="191.1" height="1.3" fill="#1F5FA8" stroke="none" stroke-width="1"/>
<text x="611.2" y="1547.5" text-anchor="middle" font-family="Helvetica,Arial" font-size="12.1" font-weight="normal" fill="#1F5FA8">1.82</text>
<rect x="515.7" y="1544.8" width="1.3" height="7.9" fill="#1F5FA8" stroke="none" stroke-width="1"/>
<rect x="705.5" y="1544.8" width="1.3" height="7.9" fill="#1F5FA8" stroke="none" stroke-width="1"/>
<rect x="706.8" y="1548.1" width="43.5" height="1.3" fill="#1F5FA8" stroke="none" stroke-width="1"/>
<text x="728.5" y="1547.5" text-anchor="middle" font-family="Helvetica,Arial" font-size="12.1" font-weight="normal" fill="#1F5FA8">0.414</text>
<rect x="706.8" y="1544.8" width="1.3" height="7.9" fill="#1F5FA8" stroke="none" stroke-width="1"/>
<rect x="749.0" y="1544.8" width="1.3" height="7.9" fill="#1F5FA8" stroke="none" stroke-width="1"/>
<text x="728.5" y="1562.0" text-anchor="middle" font-family="Helvetica,Arial" font-size="10.0" font-weight="normal" fill="#9AA7B8">0,4 на эскизе</text>
<rect x="470.0" y="1584.9" width="280.2" height="1.3" fill="#1F5FA8" stroke="none" stroke-width="1"/>
<text x="610.1" y="1584.3" text-anchor="middle" font-family="Helvetica,Arial" font-size="12.1" font-weight="normal" fill="#1F5FA8">2.669</text>
<rect x="470.0" y="1581.6" width="1.3" height="7.9" fill="#1F5FA8" stroke="none" stroke-width="1"/>
<rect x="749.0" y="1581.6" width="1.3" height="7.9" fill="#1F5FA8" stroke="none" stroke-width="1"/>
<text x="19.8" y="73.6" text-anchor="start" font-family="Helvetica,Arial" font-size="27.3" font-weight="bold" fill="#1A1A1A">ПЛАН КВАРТИРЫ</text>
<text x="19.8" y="93.9" text-anchor="start" font-family="Helvetica,Arial" font-size="14.2" font-weight="bold" fill="#1A1A1A">по обмерам с эскиза (IMG_2445) · чертёж 1:1 в метрах · View → Units → Meters</text>
<text x="19.8" y="141.5" text-anchor="start" font-family="Helvetica,Arial" font-size="14.2" font-weight="bold" fill="#333">Общая площадь по помещениям: 50.02 м²</text>
<rect x="15.8" y="1685.2" width="1039.5" height="288.8" fill="#FFFDF0" stroke="#D9D2B0" stroke-width="1"/>
<text x="19.8" y="1700.8" text-anchor="start" font-family="Helvetica,Arial" font-size="11.0" font-weight="normal" fill="#000000">ПРИМЕЧАНИЯ</text>
<text x="19.8" y="1714.6" text-anchor="start" font-family="Helvetica,Arial" font-size="11.0" font-weight="normal" fill="#000000">1. Чертёж выполнен 1:1 в метрах. Чтобы draw.io показывал метры, один раз включите</text>
<text x="19.8" y="1728.4" text-anchor="start" font-family="Helvetica,Arial" font-size="11.0" font-weight="normal" fill="#000000">View → Units → Meters (Вид → Единицы → Метры). Тогда панель Arrange, линейка</text>
<text x="19.8" y="1742.1" text-anchor="start" font-family="Helvetica,Arial" font-size="11.0" font-weight="normal" fill="#000000">и подсказки при перетаскивании будут в метрах.</text>
<text x="19.8" y="1755.9" text-anchor="start" font-family="Helvetica,Arial" font-size="11.0" font-weight="normal" fill="#000000">2. Размерные линии считают себя сами (%width-m% / %height-m%): потяните конец линии —</text>
<text x="19.8" y="1769.7" text-anchor="start" font-family="Helvetica,Arial" font-size="11.0" font-weight="normal" fill="#000000">число пересчитается. Синим подписан замер с эскиза, если он отличается от чертежа.</text>
<text x="19.8" y="1783.4" text-anchor="start" font-family="Helvetica,Arial" font-size="11.0" font-weight="normal" fill="#000000">3. Все размеры сняты по внутренним граням стен (эскиз IMG_2445).</text>
<text x="19.8" y="1797.2" text-anchor="start" font-family="Helvetica,Arial" font-size="11.0" font-weight="normal" fill="#000000">Толщина стен условная: наружные 300 мм, внутренние 125 мм (125 мм — замер с эскиза).</text>
<text x="19.8" y="1811.0" text-anchor="start" font-family="Helvetica,Arial" font-size="11.0" font-weight="normal" fill="#000000">Замеренные толщины перегородок: 0,075 / 0,11 / 0,12 / 0,125.</text>
<text x="19.8" y="1824.7" text-anchor="start" font-family="Helvetica,Arial" font-size="11.0" font-weight="normal" fill="#000000">4. Комната 1 замыкается точно по замерам: запад 0,559+0,560+5,316 = 6,435;</text>
<text x="19.8" y="1838.5" text-anchor="start" font-family="Helvetica,Arial" font-size="11.0" font-weight="normal" fill="#000000">восток 1,318+0,540+5,275 = 7,133; низ 2,513 + 0,613 (проём) = 3,126.</text>
<text x="19.8" y="1852.3" text-anchor="start" font-family="Helvetica,Arial" font-size="11.0" font-weight="normal" fill="#000000">5. Скошенный участок стены прихожей у входа (0,515 / 0,502 / 0,647 / 0,629 при толщине 0,11)</text>
<text x="19.8" y="1866.0" text-anchor="start" font-family="Helvetica,Arial" font-size="11.0" font-weight="normal" fill="#000000">вычерчен прямым — геометрию угла нужно уточнить.</text>
<text x="19.8" y="1879.8" text-anchor="start" font-family="Helvetica,Arial" font-size="11.0" font-weight="normal" fill="#000000">6. Размеры 0,155 / 0,172 / 0,2 / 0,1 / 0,735 / 0,05 / 0,15 к эскизу однозначно не привязаны.</text>
<text x="19.8" y="1893.6" text-anchor="start" font-family="Helvetica,Arial" font-size="11.0" font-weight="normal" fill="#000000">7. Назначение помещений на эскизе не указано — подписи и расположение дверей условные.</text>
</svg>